<svg width="256" height="256" viewBox="0 0 256 256" fill="none" xmlns="http://www.w3.org/2000/svg">
<mask id="mask0_2010_224" style="mask-type:alpha" maskUnits="userSpaceOnUse" x="4" y="1" width="248" height="243">
<path d="M121.058 3.34316C125.445 1.2305 130.555 1.23049 134.942 3.34316L221.132 44.8501C225.519 46.9628 228.706 50.9582 229.789 55.7053L251.076 148.971C252.16 153.718 251.023 158.7 247.987 162.507L188.341 237.3C185.305 241.107 180.701 243.324 175.832 243.324H80.1681C75.2989 243.324 70.6947 241.107 67.6588 237.3L8.01334 162.507C4.97745 158.7 3.8403 153.718 4.9238 148.971L26.211 55.7053C27.2945 50.9582 30.4807 46.9628 34.8677 44.8501L121.058 3.34316Z" fill="#FF0000"/>
</mask>
<g mask="url(#mask0_2010_224)">
<path fill-rule="evenodd" clip-rule="evenodd" d="M228.074 48.1933L128 0L27.9256 48.1933L172.537 117.835L228.074 48.1933Z" fill="#3399FF"/>
<path d="M3.20923 156.483L72.4629 243.324L172.537 117.835L27.9256 48.1933L3.20923 156.483Z" fill="#2B82D9"/>
<path d="M252.791 156.483L228.074 48.1933L172.537 117.835L252.791 156.483Z" fill="#246BB3"/>
<path d="M183.537 243.324L252.791 156.483L172.537 117.835L72.4629 243.324H183.537Z" fill="#1C548C"/>
</g>
<path d="M63.34 153.76C61.0733 153.76 58.7667 153.4 56.42 152.68C54.0733 151.933 51.9133 150.773 49.94 149.2C47.9667 147.627 46.38 145.573 45.18 143.04C43.98 140.507 43.38 137.453 43.38 133.88C43.38 130.307 43.98 127.253 45.18 124.72C46.38 122.187 47.9667 120.133 49.94 118.56C51.9133 116.987 54.0733 115.84 56.42 115.12C58.7667 114.373 61.0733 114 63.34 114C65.9533 114 68.2733 114.413 70.3 115.24C72.3533 116.04 74.0867 117.053 75.5 118.28C76.3267 118.813 76.9267 119.427 77.3 120.12C77.7 120.787 77.9 121.44 77.9 122.08C77.9 123.147 77.5133 124.013 76.74 124.68C75.9667 125.347 75.0867 125.68 74.1 125.68C73.3 125.68 72.62 125.533 72.06 125.24C71.5 124.92 70.98 124.48 70.5 123.92C69.7267 122.907 68.74 122.093 67.54 121.48C66.34 120.867 64.9267 120.56 63.3 120.56C62.02 120.56 60.7267 120.827 59.42 121.36C58.14 121.893 56.9667 122.707 55.9 123.8C54.86 124.893 54.02 126.28 53.38 127.96C52.74 129.613 52.42 131.587 52.42 133.88C52.42 136.147 52.74 138.12 53.38 139.8C54.02 141.48 54.86 142.867 55.9 143.96C56.9667 145.027 58.14 145.827 59.42 146.36C60.7267 146.893 62.02 147.16 63.3 147.16C64.9267 147.16 66.34 146.853 67.54 146.24C68.74 145.627 69.7267 144.813 70.5 143.8C70.98 143.267 71.5 142.84 72.06 142.52C72.62 142.2 73.3 142.04 74.1 142.04C75.0867 142.04 75.9667 142.373 76.74 143.04C77.5133 143.68 77.9 144.547 77.9 145.64C77.9 146.307 77.7 146.973 77.3 147.64C76.9267 148.28 76.3267 148.867 75.5 149.4C74.0867 150.653 72.3533 151.693 70.3 152.52C68.2733 153.347 65.9533 153.76 63.34 153.76ZM113.076 127C113.556 127 114.383 127.16 115.556 127.48C116.756 127.8 118.01 128.4 119.316 129.28C120.65 130.133 121.783 131.36 122.716 132.96C123.65 134.533 124.116 136.587 124.116 139.12C124.116 142.213 123.41 144.787 121.996 146.84C120.61 148.893 118.61 150.44 115.996 151.48C113.41 152.493 110.276 153 106.596 153H92.3563C88.8096 153 87.0363 151.213 87.0363 147.64V108.8C87.0363 105.253 88.8096 103.48 92.3563 103.48H104.516C107.663 103.48 110.596 103.813 113.316 104.48C116.036 105.12 118.223 106.307 119.876 108.04C121.556 109.773 122.396 112.293 122.396 115.6C122.396 117.947 121.996 119.867 121.196 121.36C120.423 122.853 119.49 124.013 118.396 124.84C117.303 125.64 116.25 126.2 115.236 126.52C114.223 126.84 113.503 127 113.076 127ZM95.9163 110.04V124.56H104.756C106.463 124.56 107.983 124.28 109.316 123.72C110.676 123.16 111.73 122.32 112.476 121.2C113.25 120.08 113.636 118.68 113.636 117C113.636 115.053 113.183 113.587 112.276 112.6C111.396 111.613 110.196 110.947 108.676 110.6C107.183 110.227 105.516 110.04 103.676 110.04H95.9163ZM103.996 146.44C107.65 146.44 110.41 145.787 112.276 144.48C114.143 143.173 115.076 141.12 115.076 138.32C115.076 135.467 114.103 133.453 112.156 132.28C110.21 131.107 107.863 130.52 105.116 130.52H95.9163V146.44H103.996ZM137.231 153.36C134.565 153.36 133.231 151.613 133.231 148.12V108.6C133.231 106.867 133.751 105.547 134.791 104.64C135.858 103.733 137.245 103.28 138.951 103.28H139.151C140.671 103.28 141.965 103.667 143.031 104.44C144.125 105.213 145.045 106.32 145.791 107.76L162.671 139.72V108.52C162.671 105.027 164.018 103.28 166.711 103.28C167.965 103.28 168.951 103.72 169.671 104.6C170.391 105.48 170.751 106.787 170.751 108.52V148.04C170.751 149.747 170.298 151.067 169.391 152C168.511 152.907 167.218 153.36 165.511 153.36H165.431C163.885 153.36 162.605 152.973 161.591 152.2C160.605 151.427 159.725 150.32 158.951 148.88L141.151 115.8V148.12C141.151 151.613 139.845 153.36 137.231 153.36ZM212.609 106.72C212.609 107.787 212.169 108.613 211.289 109.2C210.409 109.76 209.195 110.04 207.649 110.04H188.929V128.4H204.409C207.475 128.4 209.009 129.507 209.009 131.72C209.009 133.88 207.475 134.96 204.409 134.96H188.929V148.24C188.929 151.787 187.449 153.56 184.489 153.56C181.529 153.56 180.049 151.787 180.049 148.24V108.8C180.049 105.253 181.822 103.48 185.369 103.48H207.649C209.195 103.48 210.409 103.76 211.289 104.32C212.169 104.853 212.609 105.653 212.609 106.72Z" fill="white"/>
</svg>
